<svg version="1.1" id="Layer_1" xmlns="http://www.w3.org/2000/svg" xmlns:xlink="http://www.w3.org/1999/xlink" x="0px" y="0px"
	 width="100%" viewBox="0 0 500 500" enable-background="new 0 0 500 500" xml:space="preserve">
<path fill="#FFFFFF" opacity="1.000000" stroke="none" 
	d="
M282.000000,501.000000 
	C188.000015,501.000000 94.500046,501.000000 1.000050,501.000000 
	C1.000033,334.333405 1.000033,167.666794 1.000017,1.000140 
	C167.666565,1.000093 334.333130,1.000093 500.999756,1.000046 
	C500.999847,167.666519 500.999847,334.333038 500.999939,500.999786 
	C428.166656,501.000000 355.333344,501.000000 282.000000,501.000000 
M375.945343,372.188385 
	C372.531708,368.471191 368.094513,369.063354 363.161346,368.842560 
	C359.864105,367.770782 356.590118,365.862732 353.265656,365.770294 
	C337.920898,365.343628 322.562134,365.422394 307.115997,364.475311 
	C307.074829,341.207245 307.096649,317.938751 306.948059,294.671356 
	C306.911072,288.882629 306.665100,283.053314 305.924988,277.318817 
	C303.657898,259.753113 288.561707,245.478348 270.936279,244.387894 
	C267.211823,243.472397 263.487366,242.556900 259.184540,241.341614 
	C258.431793,240.954971 257.679016,240.568329 257.109253,239.376465 
	C258.409882,238.917526 259.677185,238.233185 261.016388,238.034958 
	C272.700836,236.305496 284.679138,235.729813 296.024933,232.741486 
	C312.506165,228.400574 325.700836,218.646271 330.957062,201.691833 
	C334.150604,191.390778 336.460449,180.413712 336.709717,169.683243 
	C337.277344,145.248184 336.621643,120.768402 335.822937,96.327713 
	C335.579529,88.878952 332.659088,82.089050 325.973694,77.138298 
	C320.479462,73.069664 314.619507,72.013031 308.237183,72.009804 
	C269.071564,71.989967 229.905945,71.999466 190.740326,71.999481 
	C182.740540,71.999489 174.686493,71.428246 166.757904,72.179939 
	C160.247452,72.797173 152.923477,73.252197 149.790237,81.819221 
	C144.271881,85.849823 141.817978,91.334320 141.836472,98.109978 
	C141.908112,124.362473 141.707184,150.617844 142.038834,176.866699 
	C142.248718,193.479446 147.514648,208.130951 161.033157,219.611206 
	C161.590302,220.533661 161.945938,221.708633 162.736053,222.339142 
	C169.880569,228.040298 177.993027,231.744659 186.814590,234.102386 
	C188.756805,234.621475 190.395370,236.276718 191.687698,237.913208 
	C171.268112,244.885574 161.365952,257.049011 161.173050,277.367767 
	C160.803040,316.342834 160.991058,355.323456 161.007050,394.301758 
	C161.009079,399.251587 163.286530,401.475006 168.299805,401.943604 
	C170.766739,402.174164 173.239853,402.338440 175.764999,403.254089 
	C179.341217,406.928528 183.809799,405.950775 188.720627,405.836029 
	C189.099960,405.971802 189.479294,406.107574 189.971405,406.830444 
	C190.689575,407.489319 191.407745,408.148224 191.988388,409.597717 
	C189.738968,413.635620 186.451462,412.105438 183.338104,411.143494 
	C180.976746,410.413879 178.734314,409.145233 176.332611,408.726562 
	C165.311752,406.805359 160.135925,412.196838 161.809189,423.244537 
	C162.299988,426.484985 162.179993,429.923615 161.713303,433.181671 
	C160.690491,440.322021 164.224091,445.172485 171.256134,444.872284 
	C175.129517,444.706909 179.141815,443.863464 182.742172,442.441315 
	C185.793961,441.235901 188.104736,441.413818 191.197250,442.364532 
	C195.800537,443.779602 200.842926,444.671661 205.602936,444.354126 
	C208.790329,444.141510 211.915451,441.616943 214.883865,439.821686 
	C219.381454,437.101593 222.987701,437.380249 226.691986,441.501617 
	C229.478546,444.601929 233.196381,445.554077 237.560287,443.764923 
	C239.674698,442.898071 242.527039,442.857483 244.766037,443.467560 
	C249.666107,444.802673 253.602188,443.801331 255.475876,439.968872 
	C257.859619,435.093109 259.250488,434.862122 262.465302,439.133514 
	C265.505402,443.172699 269.542267,444.927429 274.437164,444.972260 
	C280.009766,445.023315 285.585236,445.086304 291.155731,444.968719 
	C304.036896,444.696777 316.916626,444.345276 329.794312,443.942596 
	C331.049866,443.903351 332.547729,443.613403 333.484344,442.872528 
	C336.306549,440.640320 338.764038,441.304230 341.712708,442.769012 
	C349.918274,446.845123 359.307220,445.133942 363.948334,439.055908 
	C369.791321,431.403870 369.494171,421.124878 363.320862,413.795258 
	C362.293488,412.575439 361.645844,411.035797 361.777405,409.691742 
	C369.081909,409.479156 376.388947,409.328247 383.690094,409.032745 
	C388.739807,408.828308 390.940918,406.604645 391.044800,401.584625 
	C391.158386,396.096588 391.076660,390.604523 391.076416,385.114197 
	C391.075897,373.834869 389.823761,372.639099 378.361359,372.981415 
	C377.864777,372.996246 377.370453,373.087524 376.527130,373.005524 
	C376.527130,373.005524 376.181824,372.861298 375.945343,372.188385 
z"/>
<path fill="#020202" opacity="1.000000" stroke="none" 
	d="
M161.054245,218.870071 
	C147.514648,208.130951 142.248718,193.479446 142.038834,176.866699 
	C141.707184,150.617844 141.908112,124.362473 141.836472,98.109978 
	C141.817978,91.334320 144.271881,85.849823 150.296478,81.434250 
	C153.534439,80.022972 156.266144,78.996666 159.340820,78.085785 
	C162.121445,78.127258 164.559113,78.053314 167.450195,78.104874 
	C212.781265,78.341568 257.659332,78.385826 302.535767,78.679344 
	C306.520172,78.705406 310.493958,80.354454 314.653168,81.540085 
	C316.551361,83.555267 318.269043,85.280075 320.029114,87.380615 
	C321.009125,92.078690 322.704437,96.391800 322.757294,100.724930 
	C323.030823,123.147728 322.774445,145.576370 322.923126,168.001511 
	C323.021576,182.854477 321.037872,197.114273 312.509460,210.072021 
	C307.369446,216.926010 300.431396,220.894333 293.005249,224.732803 
	C290.440216,225.614944 288.219452,226.438904 285.650818,227.256256 
	C284.205139,227.618286 283.107361,227.986923 281.734436,228.319275 
	C280.969788,228.513916 280.480255,228.744843 279.577301,228.934204 
	C269.068451,229.743378 258.985321,231.072784 248.874725,231.332077 
	C233.913147,231.715790 218.932053,231.339767 203.541412,231.193909 
	C201.414124,231.073074 199.704681,231.045547 197.721497,230.851807 
	C196.610901,230.615967 195.774063,230.546326 194.533096,230.338226 
	C182.068008,229.447784 171.206528,225.194092 161.054245,218.870071 
M182.350357,110.434669 
	C174.311554,110.274796 174.310959,110.274796 174.310684,118.230675 
	C174.310211,132.009735 174.240067,145.789307 174.340576,159.567642 
	C174.390152,166.363983 174.379562,173.196625 175.072403,179.943420 
	C175.954651,188.534439 181.086929,194.038666 189.678406,196.352219 
	C192.771072,196.947144 195.856247,198.011703 198.957611,198.061234 
	C219.903336,198.395676 240.852341,198.583572 261.800690,198.629425 
	C264.877045,198.636154 267.955566,197.637924 271.822388,197.147980 
	C277.558258,196.239273 282.231232,193.500275 286.428528,188.508469 
	C287.621552,184.753067 289.781189,181.014297 289.846130,177.239487 
	C290.191467,157.164185 290.011810,137.079849 290.255676,116.222336 
	C290.175842,115.147240 290.096008,114.072144 290.213165,112.089539 
	C289.136597,111.600494 288.060089,110.684570 286.983429,110.684303 
	C252.327911,110.675797 217.672379,110.755714 182.350357,110.434669 
z"/>
<path fill="#000000" opacity="1.000000" stroke="none" 
	d="
M256.926270,240.181686 
	C257.679016,240.568329 258.431793,240.954971 259.592010,241.786560 
	C270.082977,248.050293 276.457733,256.628967 278.536224,268.084656 
	C279.449158,273.116333 279.907776,278.294952 279.940735,283.410919 
	C280.104462,308.857971 280.057922,334.306396 280.084930,359.754333 
	C280.086945,361.658051 280.085205,363.561798 280.085205,365.425171 
	C285.095978,365.425171 289.223602,365.425171 293.786560,365.507446 
	C298.550720,365.499817 302.879547,365.409912 307.208374,365.319977 
	C322.562134,365.422394 337.920898,365.343628 353.265656,365.770294 
	C356.590118,365.862732 359.864105,367.770782 363.484436,369.426025 
	C364.018036,370.945984 364.228577,371.882477 364.326782,373.286133 
	C364.177979,380.414520 364.181305,387.076294 364.092651,393.736847 
	C364.018738,399.289398 361.812012,401.604309 356.312531,401.973877 
	C354.654053,402.085327 352.982544,402.004791 351.317017,402.009583 
	C324.506104,402.086639 297.695221,402.163330 270.431580,402.175964 
	C265.939423,402.148132 261.899994,402.184448 257.429779,402.137634 
	C244.302933,401.858795 243.846161,401.395691 243.846100,388.720764 
	C243.845917,355.908173 243.949829,323.094788 243.713074,290.283905 
	C243.683640,286.204193 241.846756,282.137543 240.878510,277.703857 
	C238.698242,276.067169 236.486862,274.791473 234.130539,273.184937 
	C229.119202,272.197693 224.255997,271.009491 219.385895,270.980621 
	C202.047211,270.877655 197.173157,275.906891 197.172363,293.138245 
	C197.170837,326.077301 197.175552,359.016327 197.168564,391.955383 
	C197.166840,400.135040 196.154373,401.234467 187.440872,402.137207 
	C183.226425,402.235168 179.468307,402.383942 175.710175,402.532745 
	C173.239853,402.338440 170.766739,402.174164 168.299805,401.943604 
	C163.286530,401.475006 161.009079,399.251587 161.007050,394.301758 
	C160.991058,355.323456 160.803040,316.342834 161.173050,277.367767 
	C161.365952,257.049011 171.268112,244.885574 192.353790,237.660004 
	C197.670929,236.545868 202.321976,235.684937 207.366821,234.891220 
	C217.772446,235.107651 227.784256,235.256851 238.039246,235.643921 
	C239.184006,235.883270 240.085587,235.884766 241.285568,235.992798 
	C242.002502,236.153839 242.421051,236.208328 243.089661,236.561157 
	C247.868576,237.966904 252.397430,239.074295 256.926270,240.181686 
z"/>
<path fill="#EAEAEA" opacity="1.000000" stroke="none" 
	d="
M360.822723,409.643982 
	C361.645844,411.035797 362.293488,412.575439 363.320862,413.795258 
	C369.494171,421.124878 369.791321,431.403870 363.948334,439.055908 
	C359.307220,445.133942 349.918274,446.845123 341.712708,442.769012 
	C338.764038,441.304230 336.306549,440.640320 333.484344,442.872528 
	C332.547729,443.613403 331.049866,443.903351 329.794312,443.942596 
	C316.916626,444.345276 304.036896,444.696777 291.155731,444.968719 
	C285.585236,445.086304 280.009766,445.023315 274.437164,444.972260 
	C269.542267,444.927429 265.505402,443.172699 262.465302,439.133514 
	C259.250488,434.862122 257.859619,435.093109 255.475876,439.968872 
	C253.602188,443.801331 249.666107,444.802673 244.766037,443.467560 
	C242.527039,442.857483 239.674698,442.898071 237.560287,443.764923 
	C233.196381,445.554077 229.478546,444.601929 226.691986,441.501617 
	C222.987701,437.380249 219.381454,437.101593 214.883865,439.821686 
	C211.915451,441.616943 208.790329,444.141510 205.602936,444.354126 
	C200.842926,444.671661 195.800537,443.779602 191.197250,442.364532 
	C188.104736,441.413818 185.793961,441.235901 182.742172,442.441315 
	C179.141815,443.863464 175.129517,444.706909 171.256134,444.872284 
	C164.224091,445.172485 160.690491,440.322021 161.713303,433.181671 
	C162.179993,429.923615 162.299988,426.484985 161.809189,423.244537 
	C160.135925,412.196838 165.311752,406.805359 176.332611,408.726562 
	C178.734314,409.145233 180.976746,410.413879 183.338104,411.143494 
	C186.451462,412.105438 189.738968,413.635620 192.512756,409.240570 
	C202.015411,408.901886 210.993683,408.920349 220.026443,409.290588 
	C223.263168,414.083313 227.303802,414.152527 231.772507,412.408783 
	C231.752930,417.512787 231.752930,422.149689 231.752930,426.786591 
	C227.282883,422.553406 224.227936,418.085754 220.965836,413.774933 
	C218.676468,410.749512 215.663116,411.256104 213.997467,414.775818 
	C213.459351,415.577423 213.228485,416.308105 212.637299,417.089081 
	C211.717392,416.809998 211.078049,416.567657 210.610107,416.138428 
	C202.445786,408.649170 193.377121,410.391205 188.144180,420.215881 
	C187.265259,419.667633 186.665466,419.324554 185.887573,418.689758 
	C181.354080,410.878296 174.246078,411.578217 167.060379,411.814728 
	C166.858109,413.776703 166.692780,415.380249 166.184998,417.000427 
	C165.246964,417.791809 164.651398,418.566559 164.055817,419.341339 
	C164.878754,419.900116 165.701691,420.458893 166.630188,421.270264 
	C166.760468,421.703644 166.785217,421.884460 166.571472,422.305084 
	C166.583221,424.103058 166.833496,425.661255 167.011108,427.607910 
	C166.801590,431.045227 166.664719,434.094086 166.383102,437.551208 
	C167.660828,439.281769 168.872528,441.259094 170.547089,441.797943 
	C174.797394,443.165558 178.892807,442.238434 182.421280,439.327881 
	C185.602814,436.703552 188.547546,436.406464 192.245911,438.971710 
	C197.712189,442.763153 203.547623,443.008514 209.411499,439.120758 
	C219.622910,432.350586 219.680573,432.437561 229.296661,439.761078 
	C232.445877,442.159485 235.342056,441.405060 236.873093,437.847778 
	C236.897095,437.901855 236.789215,437.853333 237.203857,437.825745 
	C238.038620,437.355225 238.817444,436.918091 238.824783,436.468384 
	C238.925888,430.265808 238.975449,424.060425 238.858994,417.859131 
	C238.847137,417.227509 237.681656,416.617523 236.950638,415.628052 
	C236.917572,414.503937 236.985367,413.749237 237.440033,413.001831 
	C240.525818,413.003601 243.224747,412.998108 246.029205,413.357239 
	C246.123230,414.733154 246.111725,415.744446 246.104340,417.145844 
	C246.403366,419.316376 246.698257,421.096832 246.679749,423.106140 
	C246.205688,424.888153 246.045029,426.441284 245.507004,428.087341 
	C243.788330,431.265137 242.460938,434.348816 246.050201,437.235229 
	C246.451370,437.692749 246.721970,437.919006 247.064545,438.482635 
	C248.868484,440.598846 250.247360,440.749237 251.073471,437.657898 
	C251.239670,436.895660 251.326385,436.459229 251.736633,436.018250 
	C252.701950,435.335114 253.343781,434.656494 254.248566,433.854553 
	C254.999908,433.148743 255.488281,432.566223 256.298279,431.949951 
	C257.085724,431.289642 257.551483,430.663086 258.398163,430.030914 
	C260.816315,430.689911 262.853516,431.354523 265.020569,432.228210 
	C265.150421,432.437286 265.170319,432.929108 264.875610,433.131409 
	C265.053528,434.556183 265.526154,435.778717 266.123657,437.264252 
	C266.832336,438.018188 267.416168,438.509094 268.041290,439.323792 
	C268.737274,440.085297 269.391968,440.523071 270.371826,440.965027 
	C271.130493,440.975098 271.564026,440.980957 272.240936,441.265747 
	C274.324097,441.355804 276.163849,441.166931 278.328918,440.975037 
	C279.087830,440.968048 279.521515,440.964081 280.367432,440.974243 
	C283.186096,440.993774 285.592468,440.999237 288.427734,441.005005 
	C290.572601,441.010162 292.288574,441.015045 294.228302,441.274353 
	C301.481750,441.016144 308.518127,440.575073 315.534790,439.921997 
	C316.736328,439.810150 317.853638,438.793335 319.330261,438.043945 
	C319.117950,435.925568 318.585236,433.957855 318.402344,431.928253 
	C319.493103,429.904846 320.234070,427.943268 321.357758,425.998108 
	C322.826050,427.676361 323.911621,429.338165 324.999420,431.333344 
	C325.000641,432.111115 324.999603,432.555573 324.748535,433.186737 
	C325.129517,434.261505 325.760498,435.149567 326.530762,436.354797 
	C326.778473,437.119110 326.886871,437.566284 327.054504,438.355774 
	C328.723206,440.633789 330.071320,440.787872 331.251984,437.938477 
	C331.694214,437.168182 331.891022,436.586548 332.467316,436.000305 
	C334.572205,435.658508 336.297607,435.321320 338.179077,435.286438 
	C341.216370,437.074738 344.097595,438.560699 347.015564,440.335022 
	C347.701508,440.748047 348.350769,440.872742 349.375000,440.996033 
	C350.500000,440.995605 351.250000,440.996490 352.168213,441.226562 
	C352.898132,440.986328 353.459839,440.516876 354.395691,439.994507 
	C357.779022,438.685272 362.219086,439.178772 362.191101,433.920471 
	C362.421509,433.729950 362.567261,433.577087 362.539001,433.531189 
	C362.416931,433.332733 362.243988,433.165588 362.029907,432.676086 
	C361.890839,432.169495 361.811432,431.973907 361.776489,431.769012 
	C361.820984,431.759674 361.762848,431.829559 362.130005,431.878479 
	C363.143005,431.607971 363.788849,431.288544 364.434692,430.969116 
	C363.781555,430.605011 363.128387,430.240936 362.558655,429.440918 
	C362.796539,427.366302 363.139252,425.719788 363.071472,424.090332 
	C362.835052,418.405548 359.644836,413.926666 354.863861,412.313049 
	C349.771545,410.594391 343.547058,412.225464 339.860779,416.096893 
	C338.616821,416.034668 337.786469,416.011597 337.014923,415.536102 
	C337.430756,412.627411 336.648590,411.434814 333.893036,411.625366 
	C330.763428,411.841766 327.585327,411.460480 324.473633,411.780304 
	C323.240753,411.906982 322.129852,413.220703 320.619446,413.995911 
	C319.588593,413.971863 318.901642,413.945801 317.872620,413.717712 
	C312.527283,412.668457 307.523987,411.821198 301.549408,410.809479 
	C302.273163,413.830994 302.600739,415.198395 302.932404,416.922424 
	C302.927460,418.934509 302.918396,420.589996 302.611542,422.464844 
	C300.875854,422.456177 299.437927,422.228149 298.000183,421.565887 
	C297.987976,419.393524 297.975555,417.655396 298.004639,415.468689 
	C297.509308,413.907379 296.981049,411.841095 296.434204,411.836182 
	C292.798981,411.803345 289.159760,412.211639 285.399719,412.292297 
	C284.853302,412.069824 284.428955,412.031586 283.554077,411.845215 
	C280.813446,411.390137 279.430298,411.880920 279.495026,414.701599 
	C279.595490,419.079834 279.348450,423.466034 279.014893,427.934937 
	C278.859344,428.681396 278.937622,429.341797 278.965393,430.366211 
	C276.730560,431.313141 274.346771,432.680054 272.434418,432.193665 
	C271.229614,431.887177 270.241669,428.862610 270.023407,426.958008 
	C269.647888,423.680786 269.949158,420.326080 270.373169,417.002380 
	C275.860535,417.249298 277.831940,413.903839 279.497314,409.608124 
	C280.844788,409.304474 281.823334,409.055573 282.802155,409.054474 
	C307.510956,409.026794 332.219788,409.015686 356.928589,409.045563 
	C358.226868,409.047119 359.524689,409.435608 360.822723,409.643982 
z"/>
<path fill="#B1B1B1" opacity="1.000000" stroke="none" 
	d="
M219.971970,408.938843 
	C210.993683,408.920349 202.015411,408.901886 192.581512,408.845276 
	C191.407745,408.148224 190.689575,407.489319 190.376862,406.409149 
	C194.445038,405.955383 198.111053,406.010162 201.769699,405.870972 
	C207.967010,405.635193 210.100204,403.423340 210.156113,397.253479 
	C210.205902,391.758331 210.167664,386.262360 210.167709,380.766754 
	C210.167953,351.956482 210.126923,323.146118 210.186111,294.335968 
	C210.214188,280.676666 215.063278,275.658905 228.527466,274.785736 
	C230.462784,274.660217 232.360413,273.953491 234.275497,273.515747 
	C236.486862,274.791473 238.698242,276.067169 240.512604,277.769714 
	C234.822418,279.529114 228.861923,280.153992 226.490906,286.012634 
	C225.045181,289.584869 224.236847,293.666840 224.217636,297.525238 
	C224.047348,331.743530 224.085068,365.963074 224.163544,400.182068 
	C224.172119,403.923065 223.731491,407.145508 219.971970,408.938843 
z"/>
<path fill="#575757" opacity="1.000000" stroke="none" 
	d="
M234.130539,273.184937 
	C232.360413,273.953491 230.462784,274.660217 228.527466,274.785736 
	C215.063278,275.658905 210.214188,280.676666 210.186111,294.335968 
	C210.126923,323.146118 210.167953,351.956482 210.167709,380.766754 
	C210.167664,386.262360 210.205902,391.758331 210.156113,397.253479 
	C210.100204,403.423340 207.967010,405.635193 201.769699,405.870972 
	C198.111053,406.010162 194.445038,405.955383 190.320480,406.115601 
	C189.479294,406.107574 189.099960,405.971802 188.415970,405.388275 
	C188.039948,404.023041 187.968567,403.105530 187.897186,402.188049 
	C196.154373,401.234467 197.166840,400.135040 197.168564,391.955383 
	C197.175552,359.016327 197.170837,326.077301 197.172363,293.138245 
	C197.173157,275.906891 202.047211,270.877655 219.385895,270.980621 
	C224.255997,271.009491 229.119202,272.197693 234.130539,273.184937 
z"/>
<path fill="#B1B1B1" opacity="1.000000" stroke="none" 
	d="
M307.162170,364.897644 
	C302.879547,365.409912 298.550720,365.499817 293.706909,365.086365 
	C293.102692,336.932587 293.123627,309.281158 292.863464,281.632385 
	C292.774200,272.146942 290.582794,262.944061 284.362244,255.555618 
	C280.807129,251.333054 275.947662,248.208694 271.675476,244.589874 
	C288.561707,245.478348 303.657898,259.753113 305.924988,277.318817 
	C306.665100,283.053314 306.911072,288.882629 306.948059,294.671356 
	C307.096649,317.938751 307.074829,341.207245 307.162170,364.897644 
z"/>
<path fill="#5A5A5A" opacity="1.000000" stroke="none" 
	d="
M271.305878,244.488892 
	C275.947662,248.208694 280.807129,251.333054 284.362244,255.555618 
	C290.582794,262.944061 292.774200,272.146942 292.863464,281.632385 
	C293.123627,309.281158 293.102692,336.932587 293.271576,365.004089 
	C289.223602,365.425171 285.095978,365.425171 280.085205,365.425171 
	C280.085205,363.561798 280.086945,361.658051 280.084930,359.754333 
	C280.057922,334.306396 280.104462,308.857971 279.940735,283.410919 
	C279.907776,278.294952 279.449158,273.116333 278.536224,268.084656 
	C276.457733,256.628967 270.082977,248.050293 259.881195,241.936462 
	C263.487366,242.556900 267.211823,243.472397 271.305878,244.488892 
z"/>
<path fill="#F3F3F3" opacity="1.000000" stroke="none" 
	d="
M257.017761,239.779083 
	C252.397430,239.074295 247.868576,237.966904 243.343613,236.220551 
	C250.564590,235.049423 257.781677,234.517273 265.245972,234.267166 
	C267.342316,234.057663 269.191498,233.566116 271.465881,233.062622 
	C273.593658,233.027817 275.296234,233.004974 277.215332,233.251938 
	C278.629028,233.026917 279.826141,232.532089 281.394958,232.025101 
	C282.510376,232.000885 283.254089,231.988846 284.142181,232.210205 
	C284.859314,232.274567 285.432068,232.105499 286.326721,231.939911 
	C287.077881,231.940598 287.507080,231.937820 288.321106,231.952499 
	C290.470184,230.984940 292.234467,229.999939 294.332703,229.008362 
	C295.111847,228.990860 295.557037,228.979904 296.197998,229.223907 
	C299.596252,227.653412 302.798737,225.827927 306.324036,223.992798 
	C307.077209,223.970520 307.507599,223.957870 308.267761,223.926682 
	C309.060333,223.267029 309.523132,222.625931 309.992981,221.992401 
	C310.000000,222.000000 309.988373,221.985718 310.354370,221.989685 
	C311.809265,220.990082 312.898224,219.986511 314.135681,218.687286 
	C316.184326,216.590836 318.084503,214.790009 320.343628,212.956528 
	C321.464691,211.612015 322.226776,210.300156 323.288177,208.824219 
	C324.060516,207.441498 324.533539,206.222824 325.352142,204.953430 
	C327.766571,202.293289 330.797119,200.037537 328.981934,195.667542 
	C329.008057,194.900269 329.025482,194.461899 329.404419,193.950775 
	C332.281586,189.534943 333.975586,185.060669 331.983459,179.548187 
	C331.996216,176.402710 332.007660,173.706650 332.413910,170.917572 
	C333.204132,169.325409 333.937988,167.827545 333.943787,166.326889 
	C334.020538,146.420792 334.018707,126.514221 333.948700,106.608070 
	C333.943268,105.067711 333.279510,103.529671 332.930023,101.580811 
	C332.934875,99.805176 332.931427,98.439270 332.954407,96.659943 
	C331.977264,93.502502 330.973663,90.758499 329.955933,87.779068 
	C329.941833,87.543640 329.934753,87.071983 329.926941,86.723122 
	C328.942566,85.585503 327.965973,84.796738 326.703308,83.868973 
	C325.272552,82.493950 324.127869,81.257942 322.949738,79.694016 
	C322.257782,78.928047 321.599304,78.490005 320.618256,78.044014 
	C319.865814,78.020813 319.435883,78.005562 318.941528,77.627129 
	C316.182343,74.962227 313.294434,74.034843 309.529175,76.015503 
	C261.708588,76.014404 214.356476,76.013435 166.765991,75.732681 
	C164.017685,76.292046 161.507767,77.131195 158.997849,77.970352 
	C156.266144,78.996666 153.534439,80.022972 150.449890,81.142464 
	C152.923477,73.252197 160.247452,72.797173 166.757904,72.179939 
	C174.686493,71.428246 182.740540,71.999489 190.740326,71.999481 
	C229.905945,71.999466 269.071564,71.989967 308.237183,72.009804 
	C314.619507,72.013031 320.479462,73.069664 325.973694,77.138298 
	C332.659088,82.089050 335.579529,88.878952 335.822937,96.327713 
	C336.621643,120.768402 337.277344,145.248184 336.709717,169.683243 
	C336.460449,180.413712 334.150604,191.390778 330.957062,201.691833 
	C325.700836,218.646271 312.506165,228.400574 296.024933,232.741486 
	C284.679138,235.729813 272.700836,236.305496 261.016388,238.034958 
	C259.677185,238.233185 258.409882,238.917526 257.017761,239.779083 
z"/>
<path fill="#B1B1B1" opacity="1.000000" stroke="none" 
	d="
M361.300049,409.667847 
	C359.524689,409.435608 358.226868,409.047119 356.928589,409.045563 
	C332.219788,409.015686 307.510956,409.026794 282.802155,409.054474 
	C281.823334,409.055573 280.844788,409.304474 279.155945,409.484161 
	C276.568726,408.456940 274.691650,407.383514 273.275940,406.166901 
	C300.727570,405.987457 327.717865,405.952026 354.708160,405.914337 
	C359.539917,405.907562 364.378693,406.049866 369.201538,405.836731 
	C374.531006,405.601227 377.062408,402.909424 377.071930,397.628571 
	C377.086609,389.466919 376.948456,381.305023 376.875092,373.143219 
	C377.370453,373.087524 377.864777,372.996246 378.361359,372.981415 
	C389.823761,372.639099 391.075897,373.834869 391.076416,385.114197 
	C391.076660,390.604523 391.158386,396.096588 391.044800,401.584625 
	C390.940918,406.604645 388.739807,408.828308 383.690094,409.032745 
	C376.388947,409.328247 369.081909,409.479156 361.300049,409.667847 
z"/>
<path fill="#5A5A5A" opacity="1.000000" stroke="none" 
	d="
M376.701111,373.074371 
	C376.948456,381.305023 377.086609,389.466919 377.071930,397.628571 
	C377.062408,402.909424 374.531006,405.601227 369.201538,405.836731 
	C364.378693,406.049866 359.539917,405.907562 354.708160,405.914337 
	C327.717865,405.952026 300.727570,405.987457 272.995239,406.062012 
	C271.878784,405.960693 271.504395,405.821014 271.099670,405.337280 
	C271.007660,404.075531 270.945984,403.157806 270.884308,402.240082 
	C297.695221,402.163330 324.506104,402.086639 351.317017,402.009583 
	C352.982544,402.004791 354.654053,402.085327 356.312531,401.973877 
	C361.812012,401.604309 364.018738,399.289398 364.092651,393.736847 
	C364.181305,387.076294 364.177979,380.414520 364.757080,373.303406 
	C368.927094,372.856110 372.554474,372.858704 376.181824,372.861267 
	C376.181824,372.861298 376.527130,373.005524 376.701111,373.074371 
z"/>
<path fill="#EEEEEE" opacity="1.000000" stroke="none" 
	d="
M206.973022,234.824005 
	C202.321976,235.684937 197.670929,236.545868 192.596832,237.407791 
	C190.395370,236.276718 188.756805,234.621475 186.814590,234.102386 
	C177.993027,231.744659 169.880569,228.040298 162.736053,222.339142 
	C161.945938,221.708633 161.590302,220.533661 161.043701,219.240631 
	C171.206528,225.194092 182.068008,229.447784 194.596008,230.632904 
	C196.040451,231.050049 197.017853,231.034042 197.995255,231.018036 
	C199.704681,231.045547 201.414124,231.073074 203.596848,231.508972 
	C205.037781,232.886215 206.005402,233.855103 206.973022,234.824005 
z"/>
<path fill="#8E8E8E" opacity="1.000000" stroke="none" 
	d="
M187.440887,402.137207 
	C187.968567,403.105530 188.039948,404.023041 188.131821,405.285339 
	C183.809799,405.950775 179.341217,406.928528 175.737579,402.893433 
	C179.468307,402.383942 183.226425,402.235168 187.440887,402.137207 
z"/>
<path fill="#8E8E8E" opacity="1.000000" stroke="none" 
	d="
M376.063599,372.524841 
	C372.554474,372.858704 368.927094,372.856110 364.869446,372.836243 
	C364.228577,371.882477 364.018036,370.945984 363.775757,369.649902 
	C368.094513,369.063354 372.531708,368.471191 376.063599,372.524841 
z"/>
<path fill="#FEFEFE" opacity="1.000000" stroke="none" 
	d="
M290.013885,116.998642 
	C290.011810,137.079849 290.191467,157.164185 289.846130,177.239487 
	C289.781189,181.014297 287.621552,184.753067 285.769165,188.749359 
	C279.330841,190.326645 273.577484,192.667267 267.768250,192.815430 
	C248.618088,193.303925 229.444153,193.197662 210.287613,192.856216 
	C205.627579,192.773193 200.680344,191.627029 196.424301,189.721146 
	C188.220261,186.047241 187.145691,178.149094 187.052582,170.321426 
	C186.874222,155.326691 186.994354,140.328354 187.002701,125.331520 
	C187.006546,118.421638 189.373383,116.007645 196.169601,116.005516 
	C222.497391,115.997246 248.825348,115.951492 275.152802,116.047142 
	C280.107574,116.065132 285.060242,116.666481 290.013885,116.998642 
z"/>
<path fill="#CECECE" opacity="1.000000" stroke="none" 
	d="
M325.006531,205.004150 
	C324.533539,206.222824 324.060516,207.441498 322.989471,208.963913 
	C321.589172,210.508163 320.786926,211.748672 319.984650,212.989182 
	C318.084503,214.790009 316.184326,216.590836 313.806458,218.715317 
	C312.215302,220.021225 311.101837,221.003479 309.988373,221.985718 
	C309.988373,221.985718 310.000000,222.000000 309.673187,222.030197 
	C308.876892,222.688660 308.407440,223.316940 307.937988,223.945221 
	C307.507599,223.957870 307.077209,223.970520 305.950592,223.989807 
	C303.168274,224.660843 301.082184,225.325241 298.800293,225.795776 
	C297.074829,226.389404 295.545166,227.176880 293.694580,228.126617 
	C291.580536,228.842285 289.787354,229.395691 287.830261,229.707581 
	C287.110474,228.731659 286.554565,227.997253 285.998688,227.262863 
	C288.219452,226.438904 290.440216,225.614944 293.422852,224.827103 
	C295.303558,224.643921 296.494110,224.600967 297.530548,224.179214 
	C316.974823,216.267014 327.127869,201.173752 327.776550,180.815353 
	C328.676086,152.584534 328.091614,124.303200 327.946564,96.044502 
	C327.908936,88.718918 321.013367,81.548859 314.472656,81.249710 
	C310.493958,80.354454 306.520172,78.705406 302.535767,78.679344 
	C257.659332,78.385826 212.781265,78.341568 167.450546,77.776962 
	C166.999771,76.886528 167.002075,76.449493 167.004379,76.012466 
	C214.356476,76.013435 261.708588,76.014404 309.792847,76.298676 
	C313.352020,77.051422 316.178986,77.520866 319.005981,77.990311 
	C319.435883,78.005562 319.865814,78.020813 320.672028,78.360085 
	C321.693298,79.130051 322.338226,79.575996 322.983185,80.021942 
	C324.127869,81.257942 325.272552,82.493950 326.733948,84.208115 
	C328.011993,85.481514 328.973389,86.276749 329.934753,87.071976 
	C329.934753,87.071983 329.941833,87.543640 329.963501,88.181976 
	C330.966095,91.571327 331.947052,94.322350 332.927979,97.073372 
	C332.931427,98.439270 332.934875,99.805176 332.646118,101.883942 
	C332.229034,103.743752 331.995819,104.890648 331.995392,106.037643 
	C331.986847,127.695290 332.005829,149.352951 332.019104,171.010605 
	C332.007660,173.706650 331.996216,176.402710 331.696411,179.820557 
	C330.619690,185.036072 329.831299,189.529800 329.042908,194.023544 
	C329.025482,194.461899 329.008057,194.900269 328.712891,195.885193 
	C327.292267,199.289230 326.149414,202.146683 325.006531,205.004150 
z"/>
<path fill="#EEEEEE" opacity="1.000000" stroke="none" 
	d="
M290.134766,116.610489 
	C285.060242,116.666481 280.107574,116.065132 275.152802,116.047142 
	C248.825348,115.951492 222.497391,115.997246 196.169601,116.005516 
	C189.373383,116.007645 187.006546,118.421638 187.002701,125.331520 
	C186.994354,140.328354 186.874222,155.326691 187.052582,170.321426 
	C187.145691,178.149094 188.220261,186.047241 196.424301,189.721146 
	C200.680344,191.627029 205.627579,192.773193 210.287613,192.856216 
	C229.444153,193.197662 248.618088,193.303925 267.768250,192.815430 
	C273.577484,192.667267 279.330841,190.326645 285.492004,188.988983 
	C282.231232,193.500275 277.558258,196.239273 271.147339,196.809692 
	C268.666718,196.321106 266.861359,196.043610 265.055481,196.040161 
	C246.726410,196.005127 228.390533,196.290634 210.072250,195.843460 
	C204.594055,195.709747 198.791931,194.393524 193.797882,192.150406 
	C185.614929,188.474991 184.153259,180.437027 184.054901,172.440125 
	C183.850037,155.779800 183.984680,139.115204 183.993011,122.452354 
	C183.996643,115.204422 186.226196,112.997643 193.538330,112.996658 
	C225.697617,112.992325 257.856903,112.996162 290.016174,112.997040 
	C290.096008,114.072144 290.175842,115.147240 290.134766,116.610489 
z"/>
<path fill="#D2D2D2" opacity="1.000000" stroke="none" 
	d="
M290.114685,112.543289 
	C257.856903,112.996162 225.697617,112.992325 193.538330,112.996658 
	C186.226196,112.997643 183.996643,115.204422 183.993011,122.452354 
	C183.984680,139.115204 183.850037,155.779800 184.054901,172.440125 
	C184.153259,180.437027 185.614929,188.474991 193.797882,192.150406 
	C198.791931,194.393524 204.594055,195.709747 210.072250,195.843460 
	C228.390533,196.290634 246.726410,196.005127 265.055481,196.040161 
	C266.861359,196.043610 268.666718,196.321106 270.752686,196.788040 
	C267.955566,197.637924 264.877045,198.636154 261.800690,198.629425 
	C240.852341,198.583572 219.903336,198.395676 198.957611,198.061234 
	C195.856247,198.011703 192.771072,196.947144 189.278610,195.834839 
	C180.563080,186.955124 179.435150,176.563187 179.753189,165.421219 
	C180.175903,150.611938 179.667542,135.777191 180.002930,120.963432 
	C180.079926,117.562080 181.964279,114.201637 183.016876,110.822365 
	C217.672379,110.755714 252.327911,110.675797 286.983429,110.684303 
	C288.060089,110.684570 289.136597,111.600494 290.114685,112.543289 
z"/>
<path fill="#8E8E8E" opacity="1.000000" stroke="none" 
	d="
M182.683624,110.628517 
	C181.964279,114.201637 180.079926,117.562080 180.002930,120.963432 
	C179.667542,135.777191 180.175903,150.611938 179.753189,165.421219 
	C179.435150,176.563187 180.563080,186.955124 188.939926,195.657898 
	C181.086929,194.038666 175.954651,188.534439 175.072403,179.943420 
	C174.379562,173.196625 174.390152,166.363983 174.340576,159.567642 
	C174.240067,145.789307 174.310211,132.009735 174.310684,118.230675 
	C174.310959,110.274796 174.311554,110.274796 182.683624,110.628517 
z"/>
<path fill="#A2A2A2" opacity="1.000000" stroke="none" 
	d="
M312.792267,209.907074 
	C321.037872,197.114273 323.021576,182.854477 322.923126,168.001511 
	C322.774445,145.576370 323.030823,123.147728 322.757294,100.724930 
	C322.704437,96.391800 321.009125,92.078690 320.376892,87.426086 
	C325.003784,90.232857 326.004303,94.761909 326.003235,99.726456 
	C325.998108,123.139557 326.368561,146.561279 325.818573,169.961441 
	C325.604462,179.072250 324.044983,188.326981 321.694702,197.141922 
	C320.419250,201.925629 318.514648,207.603592 312.792267,209.907074 
z"/>
<path fill="#B8B8B8" opacity="1.000000" stroke="none" 
	d="
M312.509460,210.072021 
	C318.514648,207.603592 320.419250,201.925629 321.694702,197.141922 
	C324.044983,188.326981 325.604462,179.072250 325.818573,169.961441 
	C326.368561,146.561279 325.998108,123.139557 326.003235,99.726456 
	C326.004303,94.761909 325.003784,90.232857 320.334503,87.050362 
	C318.269043,85.280075 316.551361,83.555267 314.653168,81.540085 
	C321.013367,81.548859 327.908936,88.718918 327.946564,96.044502 
	C328.091614,124.303200 328.676086,152.584534 327.776550,180.815353 
	C327.127869,201.173752 316.974823,216.267014 297.530548,224.179214 
	C296.494110,224.600967 295.303558,224.643921 293.767151,224.768906 
	C300.431396,220.894333 307.369446,216.926010 312.509460,210.072021 
z"/>
<path fill="#D2D2D2" opacity="1.000000" stroke="none" 
	d="
M285.650818,227.256256 
	C286.554565,227.997253 287.110474,228.731659 287.823669,230.039734 
	C287.966125,231.053955 287.951202,231.494492 287.936310,231.935043 
	C287.507080,231.937820 287.077881,231.940598 286.175598,231.723602 
	C285.134308,231.661499 284.566040,231.819138 283.997803,231.976807 
	C283.254089,231.988846 282.510376,232.000885 281.026978,232.011963 
	C279.191101,232.334717 278.094940,232.658432 276.998779,232.982147 
	C275.296234,233.004974 273.593658,233.027817 271.058044,233.036926 
	C268.482880,233.343842 266.740845,233.664474 264.998779,233.985123 
	C257.781677,234.517273 250.564590,235.049423 243.093536,235.922211 
	C242.421051,236.208328 242.002502,236.153839 241.235840,235.649689 
	C239.857178,235.268723 238.826614,235.337402 237.796066,235.406067 
	C227.784256,235.256851 217.772446,235.107651 207.366821,234.891205 
	C206.005402,233.855103 205.037781,232.886215 204.014709,231.602280 
	C218.932053,231.339767 233.913147,231.715790 248.874725,231.332077 
	C258.985321,231.072784 269.068451,229.743378 279.721802,229.160187 
	C280.856384,229.070358 281.432983,228.712967 282.009583,228.355560 
	C283.107361,227.986923 284.205139,227.618286 285.650818,227.256256 
z"/>
<path fill="#E5E5E5" opacity="1.000000" stroke="none" 
	d="
M166.765991,75.732681 
	C167.002075,76.449493 166.999771,76.886528 166.997116,77.651459 
	C164.559113,78.053314 162.121445,78.127258 159.340820,78.085785 
	C161.507767,77.131195 164.017685,76.292046 166.765991,75.732681 
z"/>
<path fill="#D2D2D2" opacity="1.000000" stroke="none" 
	d="
M197.721497,230.851822 
	C197.017853,231.034042 196.040451,231.050049 195.000122,230.771362 
	C195.774063,230.546326 196.610901,230.615967 197.721497,230.851822 
z"/>
<path fill="#CECECE" opacity="1.000000" stroke="none" 
	d="
M281.734436,228.319275 
	C281.432983,228.712967 280.856384,229.070358 280.135254,229.201752 
	C280.480255,228.744843 280.969788,228.513916 281.734436,228.319275 
z"/>
<path fill="#FBFBFB" opacity="1.000000" stroke="none" 
	d="
M271.130005,405.681335 
	C271.504395,405.821014 271.878784,405.960693 272.533875,406.205200 
	C274.691650,407.383514 276.568726,408.456940 278.787170,409.654358 
	C277.831940,413.903839 275.860535,417.249298 270.159668,416.823792 
	C269.025818,416.435577 268.512268,416.224518 267.948425,415.666107 
	C263.586334,413.225159 259.420990,410.656311 254.893860,409.261963 
	C252.969879,408.669373 250.288071,410.537231 247.650757,411.456421 
	C246.875107,412.081482 246.399368,412.537018 245.923645,412.992554 
	C243.224747,412.998108 240.525818,413.003601 237.235535,412.636108 
	C235.026810,412.155975 233.409454,412.048828 231.792084,411.941681 
	C227.303802,414.152527 223.263168,414.083313 220.026443,409.290588 
	C223.731491,407.145508 224.172119,403.923065 224.163544,400.182068 
	C224.085068,365.963074 224.047348,331.743530 224.217636,297.525238 
	C224.236847,293.666840 225.045181,289.584869 226.490906,286.012634 
	C228.861923,280.153992 234.822418,279.529114 240.481506,278.130676 
	C241.846756,282.137543 243.683640,286.204193 243.713074,290.283905 
	C243.949829,323.094788 243.845917,355.908173 243.846100,388.720764 
	C243.846161,401.395691 244.302933,401.858795 257.525024,402.481506 
	C261.743195,406.981293 266.531036,405.885925 271.130005,405.681335 
z"/>
<path fill="#8E8E8E" opacity="1.000000" stroke="none" 
	d="
M271.099670,405.337311 
	C266.531036,405.885925 261.743195,406.981293 257.955811,402.564606 
	C261.899994,402.184448 265.939423,402.148132 270.431580,402.175964 
	C270.945984,403.157806 271.007660,404.075531 271.099670,405.337311 
z"/>
<path fill="#E5E5E5" opacity="1.000000" stroke="none" 
	d="
M238.039246,235.643921 
	C238.826614,235.337402 239.857178,235.268723 240.937454,235.543152 
	C240.085587,235.884766 239.184006,235.883270 238.039246,235.643921 
z"/>
<path fill="#0A0A0A" opacity="1.000000" stroke="none" 
	d="
M318.052521,431.990112 
	C318.585236,433.957855 319.117950,435.925568 318.937622,437.968750 
	C317.158936,438.025574 316.093292,438.006927 314.898651,437.668579 
	C313.794800,435.581146 312.819885,433.813477 311.891998,431.683929 
	C310.925507,429.807404 309.912018,428.292786 308.898529,426.778137 
	C308.402924,427.011444 307.907349,427.244751 307.411774,427.478058 
	C307.411774,429.020447 307.411774,430.562805 307.343933,432.513428 
	C307.319519,434.295380 307.362946,435.669067 307.183960,437.368835 
	C305.289429,437.465485 303.617310,437.236053 302.040222,436.554626 
	C302.135284,433.222809 302.135284,430.343018 302.135284,427.323425 
	C298.804657,427.323425 295.923431,427.323425 292.629303,427.244110 
	C289.752136,430.277679 289.945557,431.647858 293.438629,432.929871 
	C295.091492,432.999939 296.326141,432.999939 297.710693,432.999939 
	C297.899078,434.583191 298.044067,435.801788 298.030273,437.351746 
	C296.920776,437.854797 295.970062,438.026489 294.577820,438.120361 
	C291.238708,437.496124 288.341064,436.949738 285.633789,435.939026 
	C285.723419,427.808655 285.622620,420.142609 285.521851,412.476532 
	C289.159760,412.211639 292.798981,411.803345 296.434204,411.836182 
	C296.981049,411.841095 297.509308,413.907379 297.631683,415.506714 
	C295.813812,416.667328 294.410400,417.341309 292.701141,418.116516 
	C291.746582,418.758392 291.097870,419.299042 290.449158,419.839722 
	C291.267944,420.394989 292.086761,420.950317 293.232056,421.813599 
	C295.039001,422.081085 296.519501,422.040588 298.000000,422.000061 
	C299.437927,422.228149 300.875854,422.456177 303.007202,422.578613 
	C306.169861,422.389832 308.639069,422.306641 311.490356,422.307983 
	C312.876953,421.221558 313.881439,420.050598 314.885925,418.879669 
	C313.659637,418.003967 312.533173,416.873444 311.172607,416.340607 
	C310.240051,415.975433 308.981842,416.441742 307.461182,416.463257 
	C305.678192,416.448761 304.303223,416.507294 302.928284,416.565826 
	C302.600739,415.198395 302.273163,413.830994 301.549408,410.809479 
	C307.523987,411.821198 312.527283,412.668457 318.015198,414.054474 
	C321.612946,419.625946 319.810608,423.612701 315.465027,427.075165 
	C316.396240,428.844025 317.224396,430.417053 318.052521,431.990112 
z"/>
<path fill="#0A0A0A" opacity="1.000000" stroke="none" 
	d="
M231.772507,412.408783 
	C233.409454,412.048828 235.026810,412.155975 236.848679,412.628845 
	C236.985367,413.749237 236.917572,414.503937 236.846939,416.086792 
	C236.825806,423.894440 236.807510,430.873901 236.789215,437.853333 
	C236.789215,437.853333 236.897095,437.901855 236.482910,437.910522 
	C232.948868,438.784424 230.805588,437.430939 229.125580,434.545990 
	C226.382874,430.465363 223.699722,426.728241 220.952087,422.705322 
	C220.553299,422.596619 220.218994,422.773651 219.796539,423.387085 
	C219.730850,426.181824 219.753326,428.540100 219.527695,431.137299 
	C217.913773,431.520325 216.547943,431.664490 215.071625,431.363159 
	C214.742340,425.513428 214.523529,420.109161 214.304718,414.704895 
	C215.663116,411.256104 218.676468,410.749512 220.965836,413.774933 
	C224.227936,418.085754 227.282883,422.553406 231.752930,426.786591 
	C231.752930,422.149689 231.752930,417.512787 231.772507,412.408783 
z"/>
<path fill="#0A0A0A" opacity="1.000000" stroke="none" 
	d="
M188.423309,420.421051 
	C193.377121,410.391205 202.445786,408.649170 210.610107,416.138428 
	C211.078049,416.567657 211.717392,416.809998 212.597855,417.462921 
	C212.290726,422.866394 211.662704,427.946259 210.801483,433.276733 
	C204.299118,439.462189 197.066360,439.586853 190.191406,433.484009 
	C189.595215,428.866760 189.009262,424.643890 188.423309,420.421051 
M200.581390,416.291595 
	C195.181976,417.699677 192.606003,420.799103 193.154968,425.647278 
	C193.597855,429.558777 195.285034,432.648376 199.714752,433.176727 
	C203.941910,433.680908 207.138153,431.325989 208.012878,427.131622 
	C209.136322,421.744781 206.893692,418.116241 200.581390,416.291595 
z"/>
<path fill="#0A0A0A" opacity="1.000000" stroke="none" 
	d="
M340.274353,416.136047 
	C343.547058,412.225464 349.771545,410.594391 354.863861,412.313049 
	C359.644836,413.926666 362.835052,418.405548 363.071472,424.090332 
	C363.139252,425.719788 362.796539,427.366302 362.382141,429.642456 
	C362.002441,430.796478 361.882660,431.313019 361.762848,431.829559 
	C361.762848,431.829559 361.820984,431.759674 361.491882,431.947815 
	C357.885101,437.188293 353.104736,438.875824 347.448700,437.659363 
	C341.325348,436.342407 338.605255,431.818024 337.725098,425.564240 
	C337.836487,423.770996 337.889404,422.388947 338.138397,420.730011 
	C338.981079,419.014069 339.627716,417.575043 340.274353,416.136047 
M348.863708,433.106537 
	C353.590637,433.823822 356.674194,431.743439 357.750275,427.241119 
	C358.699066,423.271118 357.985474,419.022461 353.979889,417.471558 
	C351.574280,416.540100 347.746307,417.199707 345.439911,418.598785 
	C342.244995,420.536865 341.984985,426.633545 344.321320,429.902863 
	C345.225861,431.168549 346.797028,431.957886 348.863708,433.106537 
z"/>
<path fill="#0A0A0A" opacity="1.000000" stroke="none" 
	d="
M166.527466,416.983795 
	C166.692780,415.380249 166.858109,413.776703 167.060379,411.814728 
	C174.246078,411.578217 181.354080,410.878296 185.865814,419.091461 
	C187.661453,424.855682 186.862289,429.554230 183.554520,434.077332 
	C178.202744,438.257477 172.615494,439.139771 166.527863,437.142914 
	C166.664719,434.094086 166.801590,431.045227 167.407501,427.618073 
	C170.819794,426.759705 172.397003,427.799957 171.948181,431.364716 
	C172.578735,432.118896 173.307037,432.494568 174.382996,432.898621 
	C176.158234,432.292877 177.585815,431.658752 179.359833,430.912170 
	C184.346848,422.885101 181.381775,417.079224 171.874725,416.609680 
	C171.874725,418.398682 171.874725,420.164886 171.464294,422.046204 
	C169.639221,422.129333 168.224594,422.097321 166.809967,422.065308 
	C166.785217,421.884460 166.760468,421.703644 166.733673,420.874908 
	C166.663544,419.145905 166.595505,418.064850 166.527466,416.983795 
z"/>
<path fill="#E0E0E0" opacity="1.000000" stroke="none" 
	d="
M166.383118,437.551208 
	C172.615494,439.139771 178.202744,438.257477 184.007004,434.085632 
	C186.580078,433.915253 188.390854,433.896820 190.201630,433.878387 
	C197.066360,439.586853 204.299118,439.462189 211.161667,433.235168 
	C212.897415,432.564911 214.039780,432.186768 215.182129,431.808655 
	C216.547943,431.664490 217.913773,431.520325 219.929871,431.140106 
	C223.448486,432.232513 226.316833,433.560974 229.185165,434.889465 
	C230.805588,437.430939 232.948868,438.784424 236.458893,437.856445 
	C235.342056,441.405060 232.445877,442.159485 229.296661,439.761078 
	C219.680573,432.437561 219.622910,432.350586 209.411499,439.120758 
	C203.547623,443.008514 197.712189,442.763153 192.245911,438.971710 
	C188.547546,436.406464 185.602814,436.703552 182.421280,439.327881 
	C178.892807,442.238434 174.797394,443.165558 170.547089,441.797943 
	C168.872528,441.259094 167.660828,439.281769 166.383118,437.551208 
z"/>
<path fill="#0A0A0A" opacity="1.000000" stroke="none" 
	d="
M267.998749,416.013428 
	C268.512268,416.224518 269.025818,416.435577 269.752869,416.825256 
	C269.949158,420.326080 269.647888,423.680786 270.023407,426.958008 
	C270.241669,428.862610 271.229614,431.887177 272.434418,432.193665 
	C274.346771,432.680054 276.730560,431.313141 279.181458,430.147186 
	C279.381561,428.992371 279.315155,428.420624 279.248718,427.848877 
	C279.348450,423.466034 279.595490,419.079834 279.495026,414.701599 
	C279.430298,411.880920 280.813446,411.390137 283.551941,412.314087 
	C283.999573,420.261383 283.998749,427.591644 283.638794,435.017639 
	C277.277130,438.819489 271.442322,439.558838 265.923767,433.872437 
	C265.651154,433.383606 265.410736,433.156342 265.170319,432.929108 
	C265.170319,432.929108 265.150421,432.437286 265.054993,431.761292 
	C265.072601,426.116882 265.185669,421.148468 265.639557,416.228638 
	C266.653168,416.189301 267.325958,416.101379 267.998749,416.013428 
z"/>
<path fill="#0A0A0A" opacity="1.000000" stroke="none" 
	d="
M246.029190,413.357208 
	C246.399368,412.537018 246.875107,412.081482 248.087952,411.614014 
	C254.130463,411.911285 260.030579,410.303741 263.699371,416.598145 
	C264.753387,424.335114 264.103119,424.919525 251.391937,428.118378 
	C251.391937,430.079254 251.391937,432.053986 251.309464,434.359009 
	C251.289032,435.133820 251.351074,435.578308 251.413116,436.022766 
	C251.326385,436.459229 251.239670,436.895660 250.673035,437.677612 
	C249.126282,438.063843 248.059433,438.104523 246.992569,438.145233 
	C246.721970,437.919006 246.451370,437.692749 246.142334,436.792175 
	C246.030731,433.410034 245.957565,430.702240 245.884399,427.994415 
	C246.045029,426.441284 246.205688,424.888153 247.094025,423.152496 
	C249.207489,422.914337 250.593246,422.858734 252.364136,422.882385 
	C253.838364,422.708405 255.128448,422.735107 255.967285,422.133057 
	C257.091827,421.325989 257.867249,420.032471 258.792542,418.947784 
	C257.483978,418.287445 256.234558,417.307495 254.851181,417.051514 
	C253.289810,416.762604 251.607956,417.124817 249.593018,417.135620 
	C248.171768,416.963501 247.135986,416.859619 246.100220,416.755737 
	C246.111725,415.744446 246.123230,414.733154 246.029190,413.357208 
z"/>
<path fill="#CECECE" opacity="1.000000" stroke="none" 
	d="
M339.860779,416.096893 
	C339.627716,417.575043 338.981079,419.014069 337.796143,420.689819 
	C335.380737,420.284454 333.347046,417.508911 331.410095,421.278870 
	C329.721924,421.167908 328.420990,421.105408 326.780334,420.912170 
	C321.267822,418.992950 321.562195,422.950592 320.975037,425.981689 
	C320.234070,427.943268 319.493103,429.904846 318.402344,431.928253 
	C317.224396,430.417053 316.396240,428.844025 315.465027,427.075165 
	C319.810608,423.612701 321.612946,419.625946 318.357269,414.256470 
	C318.901642,413.945801 319.588593,413.971863 320.747559,414.402771 
	C322.315643,415.227600 323.402130,415.976715 324.509399,416.008850 
	C328.654602,416.129120 332.806641,416.014862 336.956116,415.988525 
	C337.786469,416.011597 338.616821,416.034668 339.860779,416.096893 
z"/>
<path fill="#E5E5E5" opacity="1.000000" stroke="none" 
	d="
M166.571472,422.305084 
	C168.224594,422.097321 169.639221,422.129333 171.888077,422.046143 
	C179.350342,422.059448 180.345734,423.498260 179.013397,431.024658 
	C177.585815,431.658752 176.158234,432.292877 174.315506,432.602966 
	C173.282211,431.848022 172.664078,431.417114 172.045929,430.986176 
	C172.397003,427.799957 170.819794,426.759705 167.480164,427.229614 
	C166.833496,425.661255 166.583221,424.103058 166.571472,422.305084 
z"/>
<path fill="#CECECE" opacity="1.000000" stroke="none" 
	d="
M337.666595,425.975464 
	C338.605255,431.818024 341.325348,436.342407 347.448700,437.659363 
	C353.104736,438.875824 357.885101,437.188293 361.447388,431.957153 
	C361.811432,431.973907 361.890839,432.169495 362.000244,432.930298 
	C362.028961,433.666077 362.027679,433.836670 362.026398,434.007294 
	C362.219086,439.178772 357.779022,438.685272 354.095032,439.997803 
	C352.946777,440.368500 352.473389,440.682922 352.000000,440.997375 
	C351.250000,440.996490 350.500000,440.995605 349.206787,440.749634 
	C348.101990,440.351959 347.540405,440.199310 346.978851,440.046661 
	C344.097595,438.560699 341.216370,437.074738 338.172119,434.924866 
	C337.424072,432.996399 336.393494,431.739899 336.370270,430.465088 
	C336.343170,428.976898 337.195740,427.472717 337.666595,425.975464 
z"/>
<path fill="#CECECE" opacity="1.000000" stroke="none" 
	d="
M251.391937,434.028687 
	C251.391937,432.053986 251.391937,430.079254 251.391937,428.118378 
	C264.103119,424.919525 264.753387,424.335114 264.122437,416.556885 
	C264.734375,416.130493 265.016541,416.155273 265.298737,416.180084 
	C265.185669,421.148468 265.072601,426.116882 264.925140,431.552185 
	C262.853516,431.354523 260.816315,430.689911 258.074890,430.057312 
	C256.906036,430.720795 256.441345,431.352264 255.976639,431.983704 
	C255.488281,432.566223 254.999908,433.148743 253.924500,433.860046 
	C252.688950,434.002106 252.040436,434.015411 251.391937,434.028687 
z"/>
<path fill="#0A0A0A" opacity="1.000000" stroke="none" 
	d="
M327.120056,421.042908 
	C328.420990,421.105408 329.721924,421.167908 331.401855,421.694336 
	C331.867676,424.103943 331.954529,426.049622 331.931427,428.364014 
	C331.899017,429.490448 331.976562,430.248169 331.966553,431.417236 
	C331.948639,433.220673 332.018219,434.612793 332.087830,436.004913 
	C331.891022,436.586548 331.694214,437.168182 330.853180,437.890289 
	C329.137726,438.024994 328.066467,438.019196 326.995239,438.013428 
	C326.886871,437.566284 326.778473,437.119110 326.667786,435.997253 
	C326.607727,434.564331 326.549957,433.806122 326.611145,432.704742 
	C326.650452,431.890808 326.570801,431.420013 326.582581,430.507385 
	C326.822662,427.058014 326.971344,424.050446 327.120056,421.042908 
z"/>
<path fill="#CECECE" opacity="1.000000" stroke="none" 
	d="
M265.955933,434.134033 
	C271.442322,439.558838 277.277130,438.819489 283.688324,435.292908 
	C284.545807,435.782776 284.994629,436.093048 285.443420,436.403320 
	C288.341064,436.949738 291.238708,437.496124 294.545197,438.421478 
	C294.637543,439.540253 294.321045,440.280090 294.004547,441.019928 
	C292.288574,441.015045 290.572601,441.010162 288.205566,440.712219 
	C284.933136,439.359741 282.220459,437.018219 279.955170,440.960144 
	C279.521515,440.964081 279.087830,440.968048 278.080505,440.704712 
	C275.670410,440.620544 273.833984,440.803680 271.997559,440.986816 
	C271.564026,440.980957 271.130493,440.975098 270.317505,440.648743 
	C269.292023,439.885498 268.645996,439.442749 268.000000,439.000000 
	C267.416168,438.509094 266.832336,438.018188 266.122864,436.905640 
	C265.983459,435.567352 265.969696,434.850677 265.955933,434.134033 
z"/>
<path fill="#E0E0E0" opacity="1.000000" stroke="none" 
	d="
M332.041321,427.995300 
	C331.954529,426.049622 331.867676,424.103943 331.789093,421.742798 
	C333.347046,417.508911 335.380737,420.284454 337.600098,420.966736 
	C337.889404,422.388947 337.836487,423.770996 337.725098,425.564240 
	C337.195740,427.472717 336.343170,428.976898 336.370270,430.465088 
	C336.393494,431.739899 337.424072,432.996399 338.016052,434.622559 
	C336.297607,435.321320 334.572205,435.658508 332.467316,436.000305 
	C332.018219,434.612793 331.948639,433.220673 332.295166,431.364441 
	C332.488007,429.931976 332.264679,428.963623 332.041321,427.995300 
z"/>
<path fill="#020202" opacity="1.000000" stroke="none" 
	d="
M337.014923,415.536072 
	C332.806641,416.014862 328.654602,416.129120 324.509399,416.008850 
	C323.402130,415.976715 322.315643,415.227600 321.091492,414.400757 
	C322.129852,413.220703 323.240753,411.906982 324.473633,411.780304 
	C327.585327,411.460480 330.763428,411.841766 333.893036,411.625366 
	C336.648590,411.434814 337.430756,412.627411 337.014923,415.536072 
z"/>
<path fill="#E0E0E0" opacity="1.000000" stroke="none" 
	d="
M294.228302,441.274353 
	C294.321045,440.280090 294.637543,439.540253 294.986694,438.499298 
	C295.970062,438.026489 296.920776,437.854797 298.405823,437.345673 
	C299.941833,437.007690 300.943481,437.007172 301.945160,437.006653 
	C303.617310,437.236053 305.289429,437.465485 307.570953,437.368164 
	C310.462769,437.356995 312.745178,437.672638 315.027618,437.988281 
	C316.093292,438.006927 317.158936,438.025574 318.617249,438.119415 
	C317.853638,438.793335 316.736328,439.810150 315.534790,439.921997 
	C308.518127,440.575073 301.481750,441.016144 294.228302,441.274353 
z"/>
<path fill="#E0E0E0" opacity="1.000000" stroke="none" 
	d="
M326.780334,420.912170 
	C326.971344,424.050446 326.822662,427.058014 326.333435,430.507355 
	C325.662109,430.988617 325.330231,431.005554 324.997192,431.000000 
	C323.911621,429.338165 322.826050,427.676361 321.357727,425.998108 
	C321.562195,422.950592 321.267822,418.992950 326.780334,420.912170 
z"/>
<path fill="#5A5A5A" opacity="1.000000" stroke="none" 
	d="
M285.633789,435.939026 
	C284.994629,436.093048 284.545807,435.782776 284.047455,435.197235 
	C283.998749,427.591644 283.999573,420.261383 284.002502,412.462219 
	C284.428955,412.031586 284.853302,412.069824 285.399719,412.292297 
	C285.622620,420.142609 285.723419,427.808655 285.633789,435.939026 
z"/>
<path fill="#E0E0E0" opacity="1.000000" stroke="none" 
	d="
M237.203857,437.825745 
	C236.807510,430.873901 236.825806,423.894440 236.947815,416.456238 
	C237.681656,416.617523 238.847137,417.227509 238.858994,417.859131 
	C238.975449,424.060425 238.925888,430.265808 238.824783,436.468384 
	C238.817444,436.918091 238.038620,437.355225 237.203857,437.825745 
z"/>
<path fill="#D2D2D2" opacity="1.000000" stroke="none" 
	d="
M302.932373,416.922424 
	C304.303223,416.507294 305.678192,416.448761 307.558929,416.770508 
	C309.079224,418.841675 310.093750,420.532562 311.108276,422.223419 
	C308.639069,422.306641 306.169861,422.389832 303.304993,422.359253 
	C302.918396,420.589996 302.927460,418.934509 302.932373,416.922424 
z"/>
<path fill="#8E8E8E" opacity="1.000000" stroke="none" 
	d="
M215.071625,431.363159 
	C214.039780,432.186768 212.897415,432.564911 211.394867,432.984589 
	C211.662704,427.946259 212.290726,422.866394 212.958191,417.412659 
	C213.228485,416.308105 213.459351,415.577423 213.997467,414.775818 
	C214.523529,420.109161 214.742340,425.513428 215.071625,431.363159 
z"/>
<path fill="#B1B1B1" opacity="1.000000" stroke="none" 
	d="
M190.191406,433.484009 
	C188.390854,433.896820 186.580078,433.915253 184.316818,433.925354 
	C186.862289,429.554230 187.661453,424.855682 186.043900,419.383118 
	C186.665466,419.324554 187.265259,419.667633 188.144196,420.215881 
	C189.009262,424.643890 189.595215,428.866760 190.191406,433.484009 
z"/>
<path fill="#D2D2D2" opacity="1.000000" stroke="none" 
	d="
M293.006989,418.015320 
	C294.410400,417.341309 295.813812,416.667328 297.590149,415.955292 
	C297.975555,417.655396 297.987976,419.393524 298.000183,421.565857 
	C296.519501,422.040588 295.039001,422.081085 293.161285,421.558624 
	C292.845032,420.002228 292.925995,419.008759 293.006989,418.015320 
z"/>
<path fill="#E0E0E0" opacity="1.000000" stroke="none" 
	d="
M251.979019,422.803101 
	C250.593246,422.858734 249.207489,422.914337 247.407440,422.923615 
	C246.698257,421.096832 246.403366,419.316376 246.104340,417.145844 
	C247.135986,416.859619 248.171768,416.963501 249.639084,417.470520 
	C250.706757,419.516785 251.342896,421.159943 251.979019,422.803101 
z"/>
<path fill="#E0E0E0" opacity="1.000000" stroke="none" 
	d="
M245.507019,428.087341 
	C245.957565,430.702240 246.030731,433.410034 246.011780,436.560913 
	C242.460938,434.348816 243.788330,431.265137 245.507019,428.087341 
z"/>
<path fill="#E0E0E0" opacity="1.000000" stroke="none" 
	d="
M280.367432,440.974243 
	C282.220459,437.018219 284.933136,439.359741 287.776703,440.711914 
	C285.592468,440.999237 283.186096,440.993774 280.367432,440.974243 
z"/>
<path fill="#E5E5E5" opacity="1.000000" stroke="none" 
	d="
M166.184998,417.000427 
	C166.595505,418.064850 166.663544,419.145905 166.628113,420.622314 
	C165.701691,420.458893 164.878754,419.900116 164.055817,419.341339 
	C164.651398,418.566559 165.246964,417.791809 166.184998,417.000427 
z"/>
<path fill="#E0E0E0" opacity="1.000000" stroke="none" 
	d="
M272.240936,441.265747 
	C273.833984,440.803680 275.670410,440.620544 277.755249,440.707764 
	C276.163849,441.166931 274.324097,441.355804 272.240936,441.265747 
z"/>
<path fill="#E0E0E0" opacity="1.000000" stroke="none" 
	d="
M326.492249,433.047913 
	C326.549957,433.806122 326.607727,434.564331 326.528473,435.680054 
	C325.760498,435.149567 325.129517,434.261505 324.997833,433.190613 
	C325.497131,433.007782 325.993835,433.049194 325.993835,433.049194 
	C325.993835,433.049194 326.492249,433.047913 326.492249,433.047913 
z"/>
<path fill="#E0E0E0" opacity="1.000000" stroke="none" 
	d="
M247.064545,438.482635 
	C248.059433,438.104523 249.126282,438.063843 250.593567,438.003418 
	C250.247360,440.749237 248.868484,440.598846 247.064545,438.482635 
z"/>
<path fill="#E0E0E0" opacity="1.000000" stroke="none" 
	d="
M327.054504,438.355774 
	C328.066467,438.019196 329.137726,438.024994 330.607758,438.078918 
	C330.071320,440.787872 328.723206,440.633789 327.054504,438.355774 
z"/>
<path fill="#E0E0E0" opacity="1.000000" stroke="none" 
	d="
M265.923737,433.872437 
	C265.969696,434.850677 265.983459,435.567352 265.997986,436.642609 
	C265.526154,435.778717 265.053528,434.556183 264.875610,433.131409 
	C265.410736,433.156342 265.651154,433.383606 265.923737,433.872437 
z"/>
<path fill="#E0E0E0" opacity="1.000000" stroke="none" 
	d="
M251.309464,434.359039 
	C252.040436,434.015411 252.688950,434.002106 253.661530,433.983337 
	C253.343781,434.656494 252.701950,435.335114 251.736633,436.018250 
	C251.351074,435.578308 251.289032,435.133820 251.309464,434.359039 
z"/>
<path fill="#E0E0E0" opacity="1.000000" stroke="none" 
	d="
M362.130005,431.878479 
	C361.882660,431.313019 362.002441,430.796478 362.298767,430.078400 
	C363.128387,430.240936 363.781555,430.605011 364.434692,430.969116 
	C363.788849,431.288544 363.143005,431.607971 362.130005,431.878479 
z"/>
<path fill="#E0E0E0" opacity="1.000000" stroke="none" 
	d="
M268.041290,439.323792 
	C268.645996,439.442749 269.292023,439.885498 269.992340,440.644531 
	C269.391968,440.523071 268.737274,440.085297 268.041290,439.323792 
z"/>
<path fill="#E0E0E0" opacity="1.000000" stroke="none" 
	d="
M347.015564,440.335022 
	C347.540405,440.199310 348.101990,440.351959 348.831787,440.750977 
	C348.350769,440.872742 347.701508,440.748047 347.015564,440.335022 
z"/>
<path fill="#E0E0E0" opacity="1.000000" stroke="none" 
	d="
M352.168213,441.226562 
	C352.473389,440.682922 352.946777,440.368500 353.720825,440.050781 
	C353.459839,440.516876 352.898132,440.986328 352.168213,441.226562 
z"/>
<path fill="#CECECE" opacity="1.000000" stroke="none" 
	d="
M326.611145,432.704742 
	C326.492249,433.047913 325.993835,433.049194 325.993835,433.049194 
	C325.993835,433.049194 325.497131,433.007782 325.247864,433.003906 
	C324.999603,432.555573 325.000641,432.111115 324.999420,431.333344 
	C325.330231,431.005554 325.662109,430.988617 326.242004,430.949219 
	C326.570801,431.420013 326.650452,431.890808 326.611145,432.704742 
z"/>
<path fill="#E0E0E0" opacity="1.000000" stroke="none" 
	d="
M256.298279,431.949951 
	C256.441345,431.352264 256.906036,430.720795 257.693970,430.062927 
	C257.551483,430.663086 257.085724,431.289642 256.298279,431.949951 
z"/>
<path fill="#B1B1B1" opacity="1.000000" stroke="none" 
	d="
M279.014893,427.934937 
	C279.315155,428.420624 279.381561,428.992371 279.231934,429.783142 
	C278.937622,429.341797 278.859344,428.681396 279.014893,427.934937 
z"/>
<path fill="#E0E0E0" opacity="1.000000" stroke="none" 
	d="
M362.191101,433.920471 
	C362.027679,433.836670 362.028961,433.666077 362.059906,433.241241 
	C362.243988,433.165588 362.416931,433.332733 362.539001,433.531189 
	C362.567261,433.577087 362.421509,433.729950 362.191101,433.920471 
z"/>
<path fill="#E5E5E5" opacity="1.000000" stroke="none" 
	d="
M332.413879,170.917572 
	C332.005829,149.352951 331.986847,127.695290 331.995392,106.037643 
	C331.995819,104.890648 332.229034,103.743752 332.637817,102.293686 
	C333.279510,103.529671 333.943268,105.067711 333.948700,106.608070 
	C334.018707,126.514221 334.020538,146.420792 333.943787,166.326889 
	C333.937988,167.827545 333.204132,169.325409 332.413879,170.917572 
z"/>
<path fill="#E5E5E5" opacity="1.000000" stroke="none" 
	d="
M329.404419,193.950775 
	C329.831299,189.529800 330.619690,185.036072 331.695129,180.269989 
	C333.975586,185.060669 332.281586,189.534943 329.404419,193.950775 
z"/>
<path fill="#E5E5E5" opacity="1.000000" stroke="none" 
	d="
M298.996094,225.989624 
	C301.082184,225.325241 303.168274,224.660843 305.627808,223.999451 
	C302.798737,225.827927 299.596252,227.653412 296.331787,228.944733 
	C297.178589,227.603607 298.087341,226.796616 298.996094,225.989624 
z"/>
<path fill="#E5E5E5" opacity="1.000000" stroke="none" 
	d="
M325.352112,204.953430 
	C326.149414,202.146683 327.292267,199.289230 328.704163,196.214111 
	C330.797119,200.037537 327.766571,202.293289 325.352112,204.953430 
z"/>
<path fill="#E5E5E5" opacity="1.000000" stroke="none" 
	d="
M318.941528,77.627121 
	C316.178986,77.520866 313.352020,77.051422 310.261353,76.298813 
	C313.294434,74.034843 316.182343,74.962227 318.941528,77.627121 
z"/>
<path fill="#E5E5E5" opacity="1.000000" stroke="none" 
	d="
M332.954407,96.659943 
	C331.947052,94.322350 330.966095,91.571327 329.977600,88.417404 
	C330.973663,90.758499 331.977264,93.502502 332.954407,96.659943 
z"/>
<path fill="#E5E5E5" opacity="1.000000" stroke="none" 
	d="
M288.321106,231.952499 
	C287.951202,231.494492 287.966125,231.053955 287.987610,230.281250 
	C289.787354,229.395691 291.580536,228.842285 293.692535,228.389496 
	C294.007202,228.665024 294.002991,228.839966 293.998779,229.014923 
	C292.234467,229.999939 290.470184,230.984940 288.321106,231.952499 
z"/>
<path fill="#E5E5E5" opacity="1.000000" stroke="none" 
	d="
M265.245972,234.267166 
	C266.740845,233.664474 268.482880,233.343842 270.632812,233.048889 
	C269.191498,233.566116 267.342316,234.057663 265.245972,234.267166 
z"/>
<path fill="#D2D2D2" opacity="1.000000" stroke="none" 
	d="
M294.332703,229.008362 
	C294.002991,228.839966 294.007202,228.665024 294.013428,228.227219 
	C295.545166,227.176880 297.074829,226.389404 298.800293,225.795792 
	C298.087341,226.796616 297.178589,227.603607 296.136047,228.689774 
	C295.557037,228.979904 295.111847,228.990860 294.332703,229.008362 
z"/>
<path fill="#E5E5E5" opacity="1.000000" stroke="none" 
	d="
M310.354370,221.989685 
	C311.101837,221.003479 312.215302,220.021225 313.657959,219.010956 
	C312.898224,219.986511 311.809265,220.990082 310.354370,221.989685 
z"/>
<path fill="#E5E5E5" opacity="1.000000" stroke="none" 
	d="
M320.343628,212.956528 
	C320.786926,211.748672 321.589172,210.508163 322.690155,209.127991 
	C322.226776,210.300156 321.464691,211.612015 320.343628,212.956528 
z"/>
<path fill="#E5E5E5" opacity="1.000000" stroke="none" 
	d="
M277.215332,233.251938 
	C278.094940,232.658432 279.191101,232.334717 280.655273,232.024139 
	C279.826141,232.532089 278.629028,233.026917 277.215332,233.251938 
z"/>
<path fill="#E5E5E5" opacity="1.000000" stroke="none" 
	d="
M329.926941,86.723114 
	C328.973389,86.276749 328.011993,85.481514 327.020020,84.347130 
	C327.965973,84.796738 328.942566,85.585503 329.926941,86.723114 
z"/>
<path fill="#E5E5E5" opacity="1.000000" stroke="none" 
	d="
M308.267761,223.926666 
	C308.407440,223.316940 308.876892,222.688660 309.666138,222.022614 
	C309.523132,222.625931 309.060333,223.267029 308.267761,223.926666 
z"/>
<path fill="#E5E5E5" opacity="1.000000" stroke="none" 
	d="
M322.949738,79.694016 
	C322.338226,79.575996 321.693298,79.130051 320.994568,78.368034 
	C321.599304,78.490005 322.257782,78.928047 322.949738,79.694016 
z"/>
<path fill="#E5E5E5" opacity="1.000000" stroke="none" 
	d="
M284.142181,232.210205 
	C284.566040,231.819138 285.134308,231.661499 285.853699,231.720154 
	C285.432068,232.105499 284.859314,232.274567 284.142181,232.210205 
z"/>
<path fill="#EAEAEA" opacity="1.000000" stroke="none" 
	d="
M265.639557,416.228638 
	C265.016541,416.155273 264.734375,416.130493 264.029175,416.146973 
	C260.030579,410.303741 254.130463,411.911285 248.387878,411.444489 
	C250.288071,410.537231 252.969879,408.669373 254.893860,409.261963 
	C259.420990,410.656311 263.586334,413.225159 267.948425,415.666107 
	C267.325958,416.101379 266.653168,416.189301 265.639557,416.228638 
z"/>
<path fill="#CECECE" opacity="1.000000" stroke="none" 
	d="
M302.040222,436.554596 
	C300.943481,437.007172 299.941833,437.007690 298.564606,437.014343 
	C298.044067,435.801788 297.899078,434.583191 297.710693,432.999939 
	C296.326141,432.999939 295.091492,432.999939 293.430420,432.534119 
	C293.016693,430.486664 293.029419,428.905029 293.042175,427.323425 
	C295.923431,427.323425 298.804657,427.323425 302.135284,427.323425 
	C302.135284,430.343018 302.135284,433.222809 302.040222,436.554596 
z"/>
<path fill="#CECECE" opacity="1.000000" stroke="none" 
	d="
M314.898651,437.668549 
	C312.745178,437.672638 310.462769,437.356995 307.793335,437.042084 
	C307.362946,435.669067 307.319519,434.295380 307.713501,432.504639 
	C309.382294,432.073669 310.613647,432.059753 311.844971,432.045837 
	C312.819885,433.813477 313.794800,435.581146 314.898651,437.668549 
z"/>
<path fill="#A2A2A2" opacity="1.000000" stroke="none" 
	d="
M311.490356,422.307983 
	C310.093750,420.532562 309.079224,418.841675 307.966980,416.843567 
	C308.981842,416.441742 310.240051,415.975433 311.172607,416.340607 
	C312.533173,416.873444 313.659637,418.003967 314.885925,418.879669 
	C313.881439,420.050598 312.876953,421.221558 311.490356,422.307983 
z"/>
<path fill="#A2A2A2" opacity="1.000000" stroke="none" 
	d="
M311.891998,431.683960 
	C310.613647,432.059753 309.382294,432.073669 307.781372,432.096405 
	C307.411774,430.562805 307.411774,429.020447 307.411774,427.478058 
	C307.907349,427.244751 308.402924,427.011444 308.898529,426.778137 
	C309.912018,428.292786 310.925507,429.807404 311.891998,431.683960 
z"/>
<path fill="#A2A2A2" opacity="1.000000" stroke="none" 
	d="
M292.701141,418.116516 
	C292.925995,419.008759 292.845032,420.002228 292.834839,421.250641 
	C292.086761,420.950317 291.267944,420.394989 290.449158,419.839722 
	C291.097870,419.299042 291.746582,418.758392 292.701141,418.116516 
z"/>
<path fill="#B8B8B8" opacity="1.000000" stroke="none" 
	d="
M292.629303,427.244110 
	C293.029419,428.905029 293.016693,430.486664 293.012207,432.464050 
	C289.945557,431.647858 289.752136,430.277679 292.629303,427.244110 
z"/>
<path fill="#B1B1B1" opacity="1.000000" stroke="none" 
	d="
M229.125580,434.545990 
	C226.316833,433.560974 223.448486,432.232513 220.177979,430.901215 
	C219.753326,428.540100 219.730850,426.181824 220.079468,423.404053 
	C220.639267,422.986786 220.827927,422.988922 221.016586,422.991089 
	C223.699722,426.728241 226.382874,430.465363 229.125580,434.545990 
z"/>
<path fill="#8E8E8E" opacity="1.000000" stroke="none" 
	d="
M220.952087,422.705322 
	C220.827927,422.988922 220.639267,422.986786 220.167648,422.967651 
	C220.218994,422.773651 220.553299,422.596619 220.952087,422.705322 
z"/>
<path fill="#CECECE" opacity="1.000000" stroke="none" 
	d="
M200.959122,416.310791 
	C206.893692,418.116241 209.136322,421.744781 208.012878,427.131622 
	C207.138153,431.325989 203.941910,433.680908 199.714752,433.176727 
	C195.285034,432.648376 193.597855,429.558777 193.154968,425.647278 
	C192.606003,420.799103 195.181976,417.699677 200.959122,416.310791 
z"/>
<path fill="#CECECE" opacity="1.000000" stroke="none" 
	d="
M348.464111,433.035400 
	C346.797028,431.957886 345.225861,431.168549 344.321320,429.902863 
	C341.984985,426.633545 342.244995,420.536865 345.439911,418.598785 
	C347.746307,417.199707 351.574280,416.540100 353.979889,417.471558 
	C357.985474,419.022461 358.699066,423.271118 357.750275,427.241119 
	C356.674194,431.743439 353.590637,433.823822 348.464111,433.035400 
z"/>
<path fill="#B8B8B8" opacity="1.000000" stroke="none" 
	d="
M179.359833,430.912170 
	C180.345734,423.498260 179.350342,422.059448 172.298523,421.931061 
	C171.874725,420.164886 171.874725,418.398682 171.874725,416.609680 
	C181.381775,417.079224 184.346848,422.885101 179.359833,430.912170 
z"/>
<path fill="#B8B8B8" opacity="1.000000" stroke="none" 
	d="
M171.948181,431.364716 
	C172.664078,431.417114 173.282211,431.848022 173.967850,432.574585 
	C173.307037,432.494568 172.578735,432.118896 171.948181,431.364716 
z"/>
<path fill="#CECECE" opacity="1.000000" stroke="none" 
	d="
M252.364136,422.882385 
	C251.342896,421.159943 250.706757,419.516785 250.024567,417.538757 
	C251.607956,417.124817 253.289810,416.762604 254.851181,417.051514 
	C256.234558,417.307495 257.483978,418.287445 258.792542,418.947784 
	C257.867249,420.032471 257.091827,421.325989 255.967285,422.133057 
	C255.128448,422.735107 253.838364,422.708405 252.364136,422.882385 
z"/>
<path fill="#CECECE" opacity="1.000000" stroke="none" 
	d="
M331.931396,428.364014 
	C332.264679,428.963623 332.488007,429.931976 332.382690,430.953125 
	C331.976562,430.248169 331.899017,429.490448 331.931396,428.364014 
z"/>
</svg>